<mxfile host="app.diagrams.net" modified="2023-12-24T06:11:50.024Z" agent="Mozilla/5.0 (Windows NT 10.0; Win64; x64) AppleWebKit/537.36 (KHTML, like Gecko) Chrome/119.0.0.0 Safari/537.36" version="22.1.11" etag="fKfs3oLbAimzWI5r0HIY" type="github">
  <diagram name="第 1 页" id="0QCgv1E0IefDS0pF7OZe">
    <mxGraphModel>
      <root>
        <mxCell id="0" />
        <mxCell id="1" parent="0" />
      </root>
    </mxGraphModel>
  </diagram>
</mxfile>
